<?xml version="1.0" encoding="UTF-8"?>
<svg width="210px" height="210px" viewBox="0 0 210 210" version="1.1" xmlns="http://www.w3.org/2000/svg" xmlns:xlink="http://www.w3.org/1999/xlink">
    <!-- Generator: Sketch 52.6 (67491) - http://www.bohemiancoding.com/sketch -->
    <title>logo-mono</title>
    <desc>Created with Sketch.</desc>
    <g id="logo-mono" stroke="none" stroke-width="1" fill="none" fill-rule="evenodd">
        <path d="M104.404675,14.2966665 C102.628426,12.965796 100.288994,12.6341645 98.2089329,13.419074 C96.1295999,14.2039835 94.6010643,15.9946487 94.1602806,18.1618387 C91.8354202,29.6103658 88.8898199,37.5695214 84.7712252,44.3411756 C80.6300448,51.1490342 75.0841854,57.1205732 67.0131093,64.3657798 C56.9989425,73.354586 53.4588308,85.98627 54.0657279,97.1343013 C54.6544108,107.952149 59.3121459,119.143626 68.0090618,124.357046 C71.0705044,126.192605 75.0506712,125.21364 76.8975911,122.170306 C78.7445109,119.127696 77.759487,115.172013 74.6973158,113.336454 C71.0654044,111.159127 67.4582644,104.91678 66.9963523,96.4391785 C66.553383,88.2910364 69.1769562,79.7656454 75.6932682,73.9164769 C84.1519424,66.3237089 90.7607825,59.3710331 95.852744,50.9998724 C99.4081558,45.1550485 102.119157,38.7939512 104.288833,31.2895217 C109.375694,36.6050386 111.994168,41.732293 113.183919,46.7111098 C114.912811,53.9447311 113.863673,61.8083073 111.180357,71.0679218 C110.531203,73.3096927 111.152672,75.7252443 112.805792,77.3812295 C114.458913,79.0364905 116.884316,79.6744105 119.144334,79.0466277 C126.834369,76.9112975 133.735364,72.2988683 138.671412,67.0108667 C141.109201,71.5762303 142.504409,76.0040175 143.115677,80.1986489 C143.62786,83.7162597 146.912245,86.1549821 150.450899,85.6459495 C153.990283,85.1369169 156.4441,81.8727362 155.931916,78.3551254 C154.641622,69.4966547 150.848698,60.41951 143.972473,51.5798655 C142.58018,49.7899244 140.344205,48.8580254 138.083458,49.1259373 C135.822712,49.3938492 133.869421,50.8224713 132.939768,52.8875652 C131.849102,55.3110817 129.594184,58.177015 126.582284,60.7236262 C127.242367,55.1061653 127.142553,49.4242609 125.783045,43.7365637 C123.242528,33.1084263 116.543346,23.3904652 104.404675,14.2966665 Z M89.8763009,156.974958 C92.7978585,154.92507 93.4943695,150.910012 91.4317936,148.006426 C89.3699462,145.103565 85.3300368,144.411338 82.4084792,146.460502 C61.9335334,160.824924 56.6543299,178.088588 55.4070215,189.890469 C55.0332661,193.424734 57.6131253,196.591163 61.1699942,196.962619 C64.7261345,197.334075 67.9121622,194.769362 68.2859176,191.235097 C69.2345131,182.260773 73.0959234,168.747152 89.8763009,156.974958 Z M150.829755,91.873815 C154.33271,92.5906603 156.586899,95.9931414 155.865617,99.4745479 C152.735689,114.578986 142.137939,129.651565 120.074715,141.405656 C131.536546,147.749376 139.56318,155.030787 145.098111,162.482358 C152.48069,172.419717 155.16692,182.301321 155.963245,189.89771 C156.334086,193.432699 153.750584,196.596956 150.194444,196.964791 C146.637575,197.333351 143.453733,194.766466 143.08362,191.231477 C142.945921,189.919432 142.733907,188.511085 142.419895,187.025984 L87.1995422,187.025984 C83.6237306,187.025984 80.7247586,184.145569 80.7247586,180.59103 C80.7247586,177.037215 83.6237306,174.156076 87.1995422,174.156076 L137.364362,174.156076 C136.575322,172.824481 135.684284,171.478405 134.680317,170.126536 C133.930621,169.11716 133.113167,168.099095 132.222129,167.076685 L105.157286,167.076685 C101.580745,167.076685 98.6825021,164.195546 98.6825021,160.641007 C98.6825021,157.087191 101.580745,154.206052 105.157286,154.206052 L116.474861,154.206052 C112.455351,151.790501 107.823116,149.464012 102.48417,147.295374 C92.1756615,143.109431 88.0760095,140.485343 81.1815707,135.495665 C78.290613,133.403056 77.6538446,129.378584 79.7586775,126.50541 C81.8642389,123.632236 85.9136197,122.999385 88.8045775,125.09127 C94.416008,129.152669 97.5641502,131.235141 104.910301,134.355953 C131.10232,123.279606 140.685174,108.93039 143.181977,96.8779748 C143.903259,93.3972924 147.327529,91.1569696 150.829755,91.873815 Z" id="logo" fill="#000000"></path>
    </g>
</svg>
