<?xml version="1.0" encoding="UTF-8"?>
<svg width="618px" height="152px" viewBox="0 0 618 152" version="1.1" xmlns="http://www.w3.org/2000/svg" xmlns:xlink="http://www.w3.org/1999/xlink">
    <!-- Generator: Sketch 52.6 (67491) - http://www.bohemiancoding.com/sketch -->
    <title>banner</title>
    <desc>Created with Sketch.</desc>
    <defs>
        <rect id="path-1" x="0" y="0" width="618" height="152" rx="10"></rect>
        <linearGradient x1="0.000153687442%" y1="86.5589038%" x2="96.021127%" y2="86.1539664%" id="linearGradient-3">
            <stop stop-color="#F58342" offset="0%"></stop>
            <stop stop-color="#F5326D" offset="100%"></stop>
        </linearGradient>
    </defs>
    <g id="banner" stroke="none" stroke-width="1" fill="none" fill-rule="evenodd">
        <mask id="mask-2" fill="white">
            <use xlink:href="#path-1"></use>
        </mask>
        <use id="Rectangle" fill="#FBFAFF" xlink:href="#path-1"></use>
        <g id="Topographic-5" opacity="0.5" mask="url(#mask-2)">
            <g transform="translate(-749.000000, -535.000000)" id="Group" opacity="0.4">
                <g>
                    <path d="M891.849,654.38 C1010.953,676.154 1093.205,1005.362 923.544,1074.843 C814.046,1119.681 649.977,1092.784 547.065,1064.266 C453.966,1038.476 282.327,957.318 251.6355,847.535 C233.1201,781.327 264.018,688.877 348.544,664.241 C416.463,644.437 503.203,664.761 516.55,669.134 C609.865,699.731 611.047,724.043 676.013,737.238 C762.31,754.815 829.471,643 891.849,654.38 Z" id="Path" stroke="#BBABF7"></path>
                    <path d="M974.001,580.288 C1105.903,611.701 1151.399,1038.057 929.312,1123.954 C784.694,1179.389 586.546,1140.909 471.369,1101.795 C368.25,1066.784 163.70464,959.593 130.188,818.943 C109.5858,732.487 151.44965,612.12 263.792,581.483 C354.459,556.779 468.997,585.756 486.095,592.364 C606.381,638.855 609.491,668.554 694.262,687.19 C807.107,712.211 895.048,561.491 974.001,580.288 Z" id="Path" stroke="#BBABF7"></path>
                    <path d="M175.3494,499.711 C288.725,470.114 430.992,507.703 451.948,516.585 C598.88,578.871 604.314,613.828 708.86,638.079 C848.272,670.417 957.514,480.407 1052.394,507.136 C1198.13,548.194 1206.31,1072.245 931.32,1174.002 C751.886,1240.4 519.277,1190.02 391.904,1140.254 C278.784,1096.064 41.479,962.839 5.059,791.296 C-17.581,684.598 35.17,536.301 175.3494,499.711 Z" id="Path" stroke="#BBABF7"></path>
                    <path d="M1212.56,405.769 C1213.31,393.134 1242.25,387.019 1266.1,368.761 C1315.02,331.307 1292.36,304.544 1331.56,277.1813 C1348.2,265.5652 1374.3,254.3135 1400.47,256.4936 C1437.59,259.5917 1450.07,285.895 1507.23,339.224 C1581.96,408.948 1613.79,422.603 1606.81,459.76 C1605.38,467.333 1604,496.41 1574.79,513.912 C1535.84,537.253 1489.15,516.018 1428.17,533.561 C1360.04,553.135 1334.57,594.983 1311.6,586.323 C1295.64,580.309 1301.76,556.091 1289.49,508.857 C1280.81,475.284 1275.44,455.663 1258.09,439.592 C1236.19,419.323 1211.74,419.491 1212.56,405.769 Z" id="Path" stroke="#BBABF7"></path>
                    <path d="M1144.223,420.463 C1141.27,402.354 1178.74,393.249 1207.81,365.413 C1267.66,308.108 1216.06,263.3175 1268.52,218.8642 C1290.97,199.8437 1329.47,182.827769 1367.93,184.60293 C1421.23,187.05981 1440.93,222.9005 1528.38,300.501 C1643.35,401.895 1692.86,419.748 1689.61,473.779 C1688.97,484.315 1689.27,527.27 1647.6,553.081 C1592.85,586.984 1526.53,554.329 1438.63,581.024 C1343.05,610.048 1312.42,675.702 1284.09,666.374 C1264.65,659.921 1277.1,626.875 1262.13,559.155 C1251.79,512.387 1245.56,486.61 1219.53,465.281 C1185.99,437.796 1147.383,439.97 1144.223,420.463 Z" id="Path" stroke="#BBABF7"></path>
                    <path d="M1075.733,435.117 C1069.108,411.554 1115.008,399.425 1149.361,362.031 C1220.02,284.842 1139.37,222.1986 1205.32,160.5134 C1233.51,134.1222 1284.52,111.3353 1335.25,112.6718 C1404.77,114.5077 1431.37,160.0072 1549.34,261.7449 C1704.18,394.983 1771.57,416.987 1772.17,487.764 C1772.29,501.264 1774.24,558.055 1720.16,592.208 C1649.54,636.635 1563.71,592.58 1448.83,628.454 C1325.78,666.887 1289.98,756.408 1256.42,746.391 C1233.48,739.52 1252.28,697.618 1234.6,609.42 C1222.59,549.449 1215.53,517.55 1180.83,490.936 C1135.61,456.27 1082.859,460.455 1075.733,435.117 Z" id="Path" stroke="#BBABF7"></path>
                    <path d="M1007.114,449.763 C1018.208,480.947 1085.084,474.737 1141.969,516.585 C1185.35,548.491 1193.23,586.498 1206.93,659.678 C1227.28,768.348 1202.16,819.112 1228.59,826.395 C1267.44,837.106 1308.4,723.712 1458.93,675.877 C1600.73,630.816 1706.25,686.366 1792.62,631.329 C1859.2,588.894 1855.49,518.266 1854.63,501.736 C1850.04,414.233 1764.89,388.058 1570.16,222.9748 C1421.67,97.1003 1388.18,41.956 1302.42,40.734 C1239.42,39.836 1175.88,68.407 1141.969,102.1558 C1062.562,181.12687 1172.41,261.6571 1090.783,358.643 C1051.223,405.641 996.789,420.753 1007.114,449.763 Z" id="Path" stroke="#BBABF7"></path>
                    <path d="M1710.29,1127.193 C1768.6,1084.401 1789.46,1016.499 1829.16,882.376 C1869.52,746.479 1872.47,655.918 1860.09,654.238 C1847.14,652.463 1801.67,688.067 1763.36,713.426 C1690.68,761.652 1556.98,752.371 1533.11,754.362 C1407.45,764.818 1379.39,797.189 1333.07,857.106 C1314.9,880.433 1259.88,940.802 1234.27,1012.186 C1194.72,1122.314 1001.641,1148.286 1013.946,1187.28 C1024.173,1219.68 1197.32,1222.91 1304.43,1217.88 C1454.36,1210.94 1606.49,1203.38 1710.29,1127.193 Z" id="Path" stroke="#BBABF7"></path>
                    <path d="M1527.83,704.226 C1371.78,716.375 1337.85,756.873 1280.76,831.12 C1258.81,859.664 1190.58,934.389 1158.702,1022.81 C1109.486,1159.437 867.604,1190.91 882.104,1238.8 C894.152,1278.62 1109.564,1282 1242.37,1275.25 C1427.94,1265.8 1616.31,1256.23 1744.38,1161.178 C1815.54,1108.362 1840.39,1025.625 1890.07,860.143 C1940.49,692.184 1944.99,580.99 1931.41,579.357 C1915.66,577.467 1859.55,621.88 1812.3,653.603 C1722.49,713.891 1556.53,701.992 1527.83,704.226 Z" id="Path" stroke="#BBABF7"></path>
                    <path d="M259.0181,379.567 C276.736,426.14 403.913,404.264 555.304,509.16 C609.55,546.749 645.922,586.066 717.719,592.181 C724.964,592.796 796.89,598.189 847.652,566.533 C911.516,526.71 872.536,471.464 947.07,394.416 C974.523,366.034 979.09,374.275 999.24,351.893 C1085.232,256.3518 954.078,159.3592 1029.754,62.333 C1064.59,17.67 1116.376,7.418 1111.454,1.586 C1090.212,-23.435 211.1399,254.0705 259.0181,379.567 Z" id="Path" stroke="#BBABF7"></path>
                </g>
            </g>
        </g>
        <g id="color-logo" mask="url(#mask-2)">
            <g transform="translate(153.500000, 39.000000)" id="Shape">
                <path d="M20.4112681,0.525008986 C19.6919799,-0.0138488889 18.7446319,-0.148123593 17.9023153,0.169679419 C17.0602937,0.487482431 16.4413164,1.2125072 16.262822,2.0899836 C15.3213746,6.72539266 14.1285599,9.94798557 12.4607435,12.6897695 C10.7837812,15.4462122 8.53799694,17.8640364 5.26963152,20.7975576 C1.21441554,24.4370471 -0.219145358,29.5515061 0.0266163676,34.065247 C0.265002291,38.4452996 2.1511424,42.9766311 5.67294038,45.0874998 C6.91266519,45.8307015 8.52442546,45.4343273 9.27233179,44.2021076 C10.0202381,42.9701812 9.62135475,41.3685596 8.3813349,40.6253579 C6.91059997,39.743777 5.44989612,37.2163049 5.26284578,33.7837978 C5.08346628,30.4846859 6.14587681,27.0328292 8.78464376,24.6645518 C12.2099662,21.5903061 14.8862023,18.7752281 16.9481815,15.3858179 C18.3879381,13.0192995 19.4857525,10.4437465 20.364358,7.40526829 C22.424272,9.55747486 23.4846173,11.6334556 23.9664047,13.6493352 C24.6665158,16.5781656 24.2416696,19.7620592 23.1550665,23.5111966 C22.8921929,24.4188701 23.1438553,25.396906 23.8132831,26.0674 C24.4827109,26.7376008 25.4648727,26.995889 26.3800622,26.7417053 C29.4941258,25.8771286 32.2886697,24.0095962 34.2875121,21.8685303 C35.2746894,23.7170063 35.8396759,25.5097788 36.0872078,27.2081486 C36.2946153,28.6323986 37.62462,29.6198161 39.0575908,29.4137132 C40.4908567,29.2076104 41.4845247,27.885972 41.2771172,26.461722 C40.7546153,22.8750042 39.2186783,19.1997472 36.4341655,15.6206521 C35.8703592,14.8959205 34.9649057,14.5186027 34.0494212,14.6270779 C33.1339366,14.7355531 32.3429556,15.3139897 31.9664947,16.1501283 C31.5248316,17.1313891 30.6117073,18.2917805 29.3920447,19.3228813 C29.6593438,17.0484202 29.6189244,14.7478665 29.0683945,12.4449674 C28.0396176,8.14172693 25.3267976,4.20700901 20.4112681,0.525008986 Z M14.5280333,58.2942086 C15.711112,57.4642267 15.9931627,55.8385646 15.1579268,54.662928 C14.322986,53.4875846 12.6870331,53.2073081 11.5039545,54.0369968 C3.21266784,59.8530265 1.07486536,66.8429337 0.569770433,71.6214127 C0.418418974,73.0524058 1.46312758,74.3344654 2.90347421,74.4848648 C4.34352581,74.6352642 5.63370111,73.596834 5.78505257,72.165841 C6.16918434,68.532215 7.73285438,63.0606674 14.5280333,58.2942086 Z M39.2110075,31.9353218 C40.6295217,32.2255663 41.542351,33.6032013 41.2502692,35.0127925 C39.9828114,41.1284483 35.6912747,47.2312043 26.7568181,51.9903337 C31.3982629,54.5588505 34.6486313,57.5070304 36.8899901,60.5241068 C39.8795502,64.5476571 40.9673335,68.5486329 41.2898035,71.6243445 C41.4399749,73.0556308 40.3937911,74.3368108 38.9537395,74.4857443 C37.5133929,74.634971 36.2241027,73.5956613 36.0742264,72.1643751 C36.0184653,71.6331398 35.932611,71.0629121 35.8054521,70.4616076 L13.4440855,70.4616076 C11.996068,70.4616076 10.8221353,69.2953527 10.8221353,67.8561507 C10.8221353,66.4172418 11.996068,65.2506937 13.4440855,65.2506937 L33.7582245,65.2506937 C33.4387048,64.7115426 33.0778805,64.1665281 32.6713263,63.6191681 C32.3677383,63.2104804 32.0367123,62.7982747 31.6758881,62.3843099 L20.7160362,62.3843099 C19.2677237,62.3843099 18.0940861,61.2177617 18.0940861,59.7785597 C18.0940861,58.3396509 19.2677237,57.1731027 20.7160362,57.1731027 L25.2990646,57.1731027 C23.6713726,56.1950669 21.7955586,55.2530917 19.6335635,54.375029 C15.4591546,52.6801773 13.799009,51.6177067 11.0071204,49.5974295 C9.83643314,48.7501502 9.5785751,47.1206768 10.4309228,45.9573536 C11.2835655,44.7940304 12.9233538,44.5377944 14.0940411,45.3847805 C16.3663782,47.0292058 17.6412119,47.8723806 20.6160204,49.1359701 C31.2224238,44.6512536 35.1029808,38.8413806 36.1140557,33.9614626 C36.4061375,32.5521646 37.7927883,31.6450774 39.2110075,31.9353218 Z" fill="url(#linearGradient-3)" fill-rule="evenodd"></path>
                <path d="M74.9153646,22.2690217 L74.9153646,63.5520567 L101.561286,63.5520567 L101.561286,58.3032137 L80.7515289,58.3032137 L80.7515289,45.4464971 L99.6158983,45.4464971 L99.6158983,40.1386783 L80.7515289,40.1386783 L80.7515289,27.5178648 L101.266531,27.5178648 L101.266531,22.2690217 L74.9153646,22.2690217 Z M104.665949,34.5949565 L114.392889,63.5520567 L124.237732,63.5520567 L133.964673,34.5949565 L128.010606,34.5949565 L119.639542,61.4289292 L118.991079,61.4289292 L110.620015,34.5949565 L104.665949,34.5949565 Z M137.103822,49.1029945 C137.103822,58.3032137 143.293693,64.3777174 152.018464,64.3777174 C160.743234,64.3777174 166.992057,58.3032137 166.992057,49.1029945 C166.992057,39.8437995 160.743234,33.7692958 152.018464,33.7692958 C143.293693,33.7692958 137.103822,39.8437995 137.103822,49.1029945 Z M142.64523,49.1029945 C142.64523,42.8515635 146.418104,38.6642842 152.018464,38.6642842 C157.618823,38.6642842 161.450648,42.7336119 161.450648,49.1029945 C161.450648,55.4134012 157.618823,59.482729 152.018464,59.482729 C146.418104,59.482729 142.64523,55.5313528 142.64523,49.1029945 Z M164.639906,22.2690217 L164.639906,27.5178648 L177.961982,27.5178648 L177.961982,63.5520567 L183.798147,63.5520567 L183.798147,27.5178648 L197.121108,27.5178648 L197.121108,22.2690217 L164.639906,22.2690217 Z M194.203025,49.1029945 C194.203025,58.3032137 200.392897,64.3777174 209.117667,64.3777174 C217.842438,64.3777174 224.091261,58.3032137 224.091261,49.1029945 C224.091261,39.8437995 217.842438,33.7692958 209.117667,33.7692958 C200.392897,33.7692958 194.203025,39.8437995 194.203025,49.1029945 Z M199.744434,49.1029945 C199.744434,42.8515635 203.517308,38.6642842 209.117667,38.6642842 C214.718027,38.6642842 218.549852,42.7336119 218.549852,49.1029945 C218.549852,55.4134012 214.718027,59.482729 209.117667,59.482729 C203.517308,59.482729 199.744434,55.5313528 199.744434,49.1029945 Z M235.592631,34.5949565 L230.169125,34.5949565 L230.169125,63.5520567 L235.710533,63.5520567 L235.710533,46.0952305 C235.710533,41.4361451 238.422286,39.2540418 242.489916,39.2540418 L247.029155,39.2540418 L247.029155,34.4770049 L243.433134,34.4770049 C239.601309,34.4770049 237.302214,35.5975445 236.182142,38.4873569 L235.592631,38.4873569 L235.592631,34.5949565 Z M248.780004,49.1029945 C248.780004,58.0673106 255.441485,64.3777174 263.812548,64.3777174 C271.770954,64.3777174 276.487047,59.6006805 277.901874,53.3492495 L272.537319,52.1107584 C271.770954,56.4159892 269.059201,59.482729 263.8715,59.482729 C258.506945,59.482729 254.380364,55.3544255 254.380364,49.1029945 C254.380364,42.7925877 258.447993,38.6642842 263.8715,38.6642842 C268.823397,38.6642842 271.829905,41.7899997 272.301515,45.977279 L277.725021,44.8567394 C276.604949,38.6642842 271.653052,33.7692958 263.812548,33.7692958 C255.441485,33.7692958 248.780004,40.0797025 248.780004,49.1029945 Z M283.823518,22.2690217 L283.823518,63.5520567 L289.364926,63.5520567 L289.364926,48.8081156 C289.364926,42.20283 292.843044,38.6642842 298.030746,38.6642842 C302.687887,38.6642842 305.517543,41.0822905 305.517543,46.3901093 L305.517543,63.5520567 L311,63.5520567 L311,46.0952305 C311,38.5463327 306.107054,34.0641746 299.622427,34.0641746 C293.904165,34.0641746 291.251363,36.6001324 289.954438,39.0181388 L289.364926,39.0181388 L289.364926,22.2690217 L283.823518,22.2690217 Z" fill="#34255D" fill-rule="nonzero"></path>
            </g>
        </g>
    </g>
</svg>
